<?xml version="1.0" encoding="UTF-8"?>
<svg xmlns="http://www.w3.org/2000/svg" xmlns:xlink="http://www.w3.org/1999/xlink" width="100px" height="100px" viewBox="0 0 100 100" version="1.1">
    
    <title>mobikul-new-logo</title>
    <desc>Created with Sketch.</desc>
    <defs/>
    <g id="mobikul-new-logo" stroke="none" stroke-width="1" fill="none" fill-rule="evenodd">
        <path d="M71.7930723,20.7094638 L71.7839163,20.7076326 C81.3290526,20.7106642 89.0664404,28.4472324 89.0704832,37.9923682 L89.0704832,70.4651109 C89.0798966,74.595752 86.211873,78.1756565 82.178664,79.0675696 C78.1454549,79.9594827 74.0353524,77.922737 72.3021471,74.1732992 L57.1507642,41.641958 C55.0295085,37.0794052 55.3848182,31.7495673 58.0929302,27.5089607 C60.8010422,23.2683541 65.4869953,20.7041269 70.5185543,20.7094638 L71.7930723,20.7094638 Z M47.7182318,33.6945322 L64.4023325,69.4780919 C65.3942259,71.6033344 65.2306229,74.0881859 63.9686474,76.0650335 C62.7066719,78.041881 60.5215491,79.2362393 58.1762385,79.231085 L52.3713215,79.231085 C48.8541929,79.2291014 45.6530171,77.2007395 44.149215,74.0213093 L35.1341971,54.7643668 C34.4768221,53.3717432 32.8149699,52.7757064 31.4223463,53.4330814 C30.0297227,54.0904563 29.433686,55.7523085 30.0910609,57.1449321 L35.725676,69.2308793 C36.7531717,71.4069803 36.5945456,73.9577129 35.3053526,75.9897425 C34.0161596,78.0217721 31.7760487,79.2519357 29.3695665,79.249397 L16.9411842,79.249397 C13.1507245,79.2463753 10.0775712,76.1764982 10.0705063,72.386044 L10.0705063,37.9337697 C10.0806114,28.4177904 17.7971397,20.7086377 27.3131243,20.7076326 C36.0617884,20.6994789 44.0213143,25.7653461 47.7182318,33.6945322 Z" id="Shape" fill="#1B40F7"/>
    </g>
</svg>
